PathFileType	4	(X/Y/Z)	Patient4_TMGait_0pt3_03_right_30.trc.trc
DataRate	CameraRate	NumFrames	NumMarkers	Units	OrigDataRate	OrigDataStartFrame	OrigNumFrames
54.901960784314	54.901960784314	4	33	mm	54.901960784314	89	       141
Frame#	Time	Sacral			L.Shoulder			Chest			R.Shoulder			Neck			R.ASIS			L.ASIS			R.Thigh.Superior			R.Thigh.Lateral			R.Thigh.Inferior			R.Patella			L.Thigh.Superior			L.Thigh.Lateral			L.Thigh.Inferior			L.Patella			L.Shank.Superior			L.Shank.Lateral			L.Shank.Inferior			R.Shank.Superior			R.Shank.Lateral			R.Shank.Inferior			R.Heel			R.Midfoot.Superior			R.Midfoot.Lateral			R.Toe			L.Heel			L.Midfoot.Lateral			L.Midfoot.Superior			L.Toe			L.Elbow			L.Wrist			R.Elbow			R.Wrist			
		X1	Y1	Z1	X2	Y2	Z2	X3	Y3	Z3	X4	Y4	Z4	X5	Y5	Z5	X6	Y6	Z6	X7	Y7	Z7	X8	Y8	Z8	X9	Y9	Z9	X10	Y10	Z10	X11	Y11	Z11	X12	Y12	Z12	X13	Y13	Z13	X14	Y14	Z14	X15	Y15	Z15	X16	Y16	Z16	X17	Y17	Z17	X18	Y18	Z18	X19	Y19	Z19	X20	Y20	Z20	X21	Y21	Z21	X22	Y22	Z22	X23	Y23	Z23	X24	Y24	Z24	X25	Y25	Z25	X26	Y26	Z26	X27	Y27	Z27	X28	Y28	Z28	X29	Y29	Z29	X30	Y30	Z30	X31	Y31	Z31	X32	Y32	Z32	X33	Y33	Z33	

89	57.612857142857	718.468610765092	1009.300881347218	517.112903372783	869.341692903703	1425.929431025583	304.613617563582	994.031727909773	1362.560423723427	451.924040630691	937.160608962289	1442.011940503374	632.959744835885	868.649032016633	1492.916137891114	461.771439504636	956.255682076062	936.607209802777	610.475501835167	915.513311380238	959.113386327908	339.130190649608	952.019212583593	723.360904846185	587.994881498350	853.180502704867	629.406900875823	657.925724627360	912.503944255216	561.236169239813	578.132135219634	892.675545991970	467.783592215414	591.032653554763	984.675879230073	761.194961475107	375.046996153649	914.700837548399	634.963195984895	310.602058623744	1010.328047363966	569.192823761485	372.452587061439	1020.092881991407	497.205272327230	377.754326731266	994.996581533305	423.861097023700	368.471246216653	910.793175714153	307.703795925354	313.460610076743	964.554070782596	195.590412022168	380.037384223232	834.336740871159	392.533324520525	601.905157940344	735.239575101830	319.913330688499	671.077767025654	742.554223294997	213.688950425434	612.337776320879	562.546369390670	83.252151093538	593.708805453206	742.212481676975	102.571515584554	624.654166015702	645.653254704801	56.803658290103	664.069238904825	849.502095758927	37.033974352869	646.200667055331	838.632850077111	39.091734978399	413.985725677796	915.046325564591	36.799080569756	335.829663895465	998.361178554807	96.860291689561	365.591455209993	1126.736217015264	43.157996056629	339.638558249132	812.163591258673	1072.802093735421	205.353076305744	871.858610296730	817.525958324227	209.652969594300	1089.664849441113	1133.016875389939	743.161836559081	1345.259658018081	1099.333342910593	717.206691502062	
90	57.631071428571	718.373029123084	1009.564600472365	511.414902661980	871.369463755682	1426.243240147675	300.013152769964	994.312523840361	1363.012825399593	448.852291433122	935.419614512756	1442.699274720059	629.097934814917	868.782809432625	1493.408313628160	457.260383145398	955.119926750264	937.343414274247	607.163343645184	917.034928630483	959.233546136129	335.429328325815	952.826482059496	724.217496479866	585.625430698270	854.450100221611	629.909420007469	655.419674273291	915.387550636355	561.559535593255	576.643355329346	896.022167437669	466.999834273810	590.701414575470	984.823316275689	760.556473773971	371.092688084183	913.764348140993	634.585552787857	307.553367927630	1008.942776634552	568.405635669390	369.474278489149	1018.129583485054	496.371725499270	375.298269390022	992.482789680927	423.019376561657	366.480036996898	907.425428216340	307.224498823402	311.984450527018	960.148842904638	195.122958104499	379.293067310434	836.050293666107	392.733881580285	601.352442955397	735.003085081463	322.469367544215	670.057251926125	741.261428875670	215.503692951925	612.462841592782	558.999429944703	88.243726434705	593.815586981924	739.001220525852	103.112225848743	624.852866886452	641.356008310244	59.559640495715	664.102009025695	844.243819545208	36.885200223345	646.157461728313	833.149762175723	39.051233940781	413.958396474500	909.546026595208	36.722474315831	335.766689777488	992.913921469685	96.714862368562	365.505601335600	1121.314753845257	42.820703327383	339.597401543614	824.839534267768	1072.495880397467	196.855279979114	891.102622763395	818.931048041218	199.827113328430	1079.622962709415	1128.610008572653	740.369954610790	1332.737448563215	1075.911457519732	718.869679302900	
91	57.649285714286	718.141359972525	1009.820534350547	505.824668259229	873.382717854431	1426.515049982517	295.474849027619	994.503283540146	1363.429809713688	445.853074817476	933.577772584774	1443.357644370324	625.281678422338	868.920205032916	1493.882473384254	452.736672647862	953.828236862078	938.080878229218	603.906240247442	918.383237627018	959.376941155896	331.823827466813	954.145773860106	725.184464502341	583.221701376427	856.650649604264	630.231136724675	652.912559047355	919.374196281993	561.910730780837	575.077177884693	900.632086239975	466.098205639076	590.365629205665	984.688220794502	759.851137026013	367.078851892126	912.408968763513	634.234353385559	304.484870670776	1007.074087555597	567.573433992120	366.457924496135	1015.626778112877	495.572114176846	372.808740671812	989.536395442269	422.227824049477	364.439387775447	903.740833016703	306.713975733410	310.440270449675	955.594490278677	194.688483794987	378.499920282594	838.901152984872	392.895452994742	600.776657065996	735.817652392713	325.285379290625	669.023929879611	740.723906727020	217.594450424762	612.573063812496	556.011084767475	94.243981512965	593.900788964540	736.185209613761	103.873752200927	625.065598852977	637.355414238764	63.027116255993	664.115577931592	838.963698646444	36.623289919776	646.128039030879	827.655991857828	38.997343042645	413.913348178235	904.035650109551	36.626883801931	335.677086446031	987.448311525872	96.564286092547	365.382222187052	1115.880365151669	42.522874392062	339.547636374980	837.813740999074	1072.442577437545	188.649763982399	910.643990274942	820.829897411972	190.639983581454	1068.483223049940	1124.185702222568	737.875259261304	1317.341899796437	1052.046356517134	720.677369383378	
92	57.667500000000	717.757076110183	1010.063428724574	500.345177536998	875.374424084748	1426.754609156059	291.047231725579	994.591478326636	1363.806214313710	442.969260341409	931.613977580179	1443.960563206228	621.560839447085	869.045612169790	1494.334620628476	448.248146502912	952.383576174990	938.807444058108	600.733078284931	919.560465568557	959.544224256255	328.336329015916	956.013224434823	726.294325235662	580.807082104047	859.830143026522	630.401987453084	650.410650435046	924.507561178042	562.338964067635	573.428201247796	906.548551490492	465.157136074590	589.975673870007	984.294962987668	759.094639853306	363.095033561303	910.723371332212	633.918820329204	301.426841027411	1004.800360841530	566.713760287597	363.483708347399	1012.682408643945	494.806826521355	370.350624441405	986.235110116902	421.487257343548	362.400023445548	899.810394013231	306.189354102244	308.855877032238	950.915761312440	194.286902559217	377.690694149831	842.955579032054	393.071165902029	600.138006543218	737.783507099304	328.420546698253	667.958108136821	741.012855359526	220.047604674102	612.634233361891	553.703310979876	101.456128746540	593.933169104708	733.819731672315	104.987231116787	625.293753292624	633.723697938596	67.391629307204	664.089302010352	833.656134665885	36.213538952313	646.122075385478	822.156217031535	38.932896614203	413.852138028362	898.520486238846	36.520706974440	335.565893525911	981.965673219925	96.419015077789	365.232401467239	1110.435733493064	42.278296786944	339.492342915121	850.871314781288	1072.669206484987	180.837907717780	930.357299053269	823.262239230575	182.127628456899	1056.228147874783	1119.790588990910	735.635500231338	1298.958219296826	1028.031717889470	722.616445862420	
